STARTFONT 2.1
FONT -gbdfed-Unknown-Medium-R-Normal--12-120-96-96-C-100-FontSpecific-0
SIZE 12 96 96
FONTBOUNDINGBOX 10 16 0 -4
STARTPROPERTIES 9
POINT_SIZE 120
PIXEL_SIZE 12
RESOLUTION_X 96
RESOLUTION_Y 96
FONT_ASCENT 12
FONT_DESCENT 0
AVERAGE_WIDTH 100
SPACING "C"
_GBDFED_INFO "Edited with gbdfed 1.6."
ENDPROPERTIES
CHARS 95
STARTCHAR bing
ENCODING 59136
SWIDTH 625 0
DWIDTH 10 0
BBX 10 16 0 -4
BITMAP
8000
C000
E000
EC00
EF00
E780
E180
C780
BF80
FE00
7800
2000
0000
0000
0000
0000
ENDCHAR
STARTCHAR csstricks
ENCODING 59137
SWIDTH 625 0
DWIDTH 10 0
BBX 10 16 0 -4
BITMAP
0000
0000
0800
4900
2A00
1C00
FF80
1C00
2A00
4900
0800
0000
0000
0000
0000
0000
ENDCHAR
STARTCHAR git
ENCODING 59138
SWIDTH 625 0
DWIDTH 10 0
BBX 10 16 0 -4
BITMAP
0000
0C00
1600
3900
7980
FA40
FA40
7380
3300
1E00
0C00
0000
0000
0000
0000
0000
ENDCHAR
STARTCHAR bitbucket
ENCODING 59139
SWIDTH 625 0
DWIDTH 10 0
BBX 10 16 0 -4
BITMAP
3F00
C0C0
C0C0
FFC0
F3C0
EDC0
EDC0
7380
3F00
4080
7F80
3F00
0000
0000
0000
0000
ENDCHAR
STARTCHAR mysql
ENCODING 59140
SWIDTH 625 0
DWIDTH 10 0
BBX 10 16 0 -4
BITMAP
C000
B000
8800
4400
4400
4200
8200
A180
E040
9180
0080
0040
0000
0000
0000
0000
ENDCHAR
STARTCHAR streamline
ENCODING 59141
SWIDTH 625 0
DWIDTH 10 0
BBX 10 16 0 -4
BITMAP
1E00
6180
8040
C0C0
BF40
C0C0
BF40
C0C0
BF40
8040
4080
3F00
0000
0000
0000
0000
ENDCHAR
STARTCHAR database
ENCODING 59142
SWIDTH 625 0
DWIDTH 10 0
BBX 10 16 0 -4
BITMAP
7F80
C0C0
C0C0
FFC0
7F80
BF40
C0C0
7F80
BF40
C0C0
7F80
3F00
0000
0000
0000
0000
ENDCHAR
STARTCHAR dropbox
ENCODING 59143
SWIDTH 625 0
DWIDTH 10 0
BBX 10 16 0 -4
BITMAP
0000
2200
7700
FF80
7700
2200
7700
FF80
7700
2A00
3E00
0800
0000
0000
0000
0000
ENDCHAR
STARTCHAR github_alt
ENCODING 59144
SWIDTH 625 0
DWIDTH 10 0
BBX 10 16 0 -4
BITMAP
0000
4080
6180
7F80
7F80
FFC0
E1C0
D2C0
D2C0
6180
3F00
0000
0000
0000
0000
0000
ENDCHAR
STARTCHAR github_badge
ENCODING 59145
SWIDTH 625 0
DWIDTH 10 0
BBX 10 16 0 -4
BITMAP
0000
1E00
7F80
6D80
E1C0
C0C0
C0C0
E1C0
5380
6380
1200
0000
0000
0000
0000
0000
ENDCHAR
STARTCHAR github
ENCODING 59146
SWIDTH 625 0
DWIDTH 10 0
BBX 10 16 0 -4
BITMAP
0000
1E00
6180
5280
9E40
BF40
A140
A140
5E80
6180
1E00
0000
0000
0000
0000
0000
ENDCHAR
STARTCHAR wordpress
ENCODING 59147
SWIDTH 625 0
DWIDTH 10 0
BBX 10 16 0 -4
BITMAP
0000
1E00
7F00
2200
7740
BB40
BB40
D4C0
5480
6D80
1E00
0000
0000
0000
0000
0000
ENDCHAR
STARTCHAR visualstudio
ENCODING 59148
SWIDTH 625 0
DWIDTH 10 0
BBX 10 16 0 -4
BITMAP
0000
0080
41C0
E3C0
F6C0
BCC0
98C0
BCC0
F6C0
E3C0
41C0
0080
0000
0000
0000
0000
ENDCHAR
STARTCHAR jekyll
ENCODING 59149
SWIDTH 625 0
DWIDTH 10 0
BBX 10 16 0 -4
BITMAP
0F00
0880
0F80
1100
1300
3E00
2E00
5C00
5C00
B800
B800
7000
0000
0000
0000
0000
ENDCHAR
STARTCHAR android
ENCODING 59150
SWIDTH 625 0
DWIDTH 10 0
BBX 10 16 0 -4
BITMAP
0000
2100
1E00
2D00
3F00
0000
BF40
BF40
BF40
BF40
1200
1200
0000
0000
0000
0000
ENDCHAR
STARTCHAR windows
ENCODING 59151
SWIDTH 625 0
DWIDTH 10 0
BBX 10 16 0 -4
BITMAP
0000
01C0
07C0
37C0
F7C0
F7C0
0000
F7C0
F7C0
37C0
07C0
01C0
0000
0000
0000
0000
ENDCHAR
STARTCHAR stackoverflow
ENCODING 59152
SWIDTH 625 0
DWIDTH 10 0
BBX 10 16 0 -4
BITMAP
0240
1240
0940
0540
3240
0C00
8100
BD00
8100
BD00
8100
FF00
0000
0000
0000
0000
ENDCHAR
STARTCHAR char59153apple
ENCODING 59153
SWIDTH 625 0
DWIDTH 10 0
BBX 10 16 0 -4
BITMAP
0200
0600
0400
3B80
7F00
FF00
FF00
FF80
FFC0
7F80
7F80
3300
0000
0000
0000
0000
ENDCHAR
STARTCHAR linux
ENCODING 59154
SWIDTH 625 0
DWIDTH 10 0
BBX 10 16 0 -4
BITMAP
1E00
3F00
2B00
3F00
2380
2780
7FC0
41C0
E3C0
9240
9E40
7F80
0000
0000
0000
0000
ENDCHAR
STARTCHAR appstore
ENCODING 59155
SWIDTH 625 0
DWIDTH 10 0
BBX 10 16 0 -4
BITMAP
0000
3600
3600
1C00
1800
3600
3600
FF80
FF80
6300
C180
C180
0000
0000
0000
0000
ENDCHAR
STARTCHAR ghost_small
ENCODING 59156
SWIDTH 625 0
DWIDTH 10 0
BBX 10 16 0 -4
BITMAP
0000
FCC0
FCC0
0000
0000
FFC0
FFC0
0000
0000
F3C0
F3C0
0000
0000
0000
0000
0000
ENDCHAR
STARTCHAR yahoo
ENCODING 59157
SWIDTH 625 0
DWIDTH 10 0
BBX 10 16 0 -4
BITMAP
0000
0000
0000
0000
3C40
7E40
0F40
D940
EB40
F740
6200
3C40
0000
0000
0000
0000
ENDCHAR
STARTCHAR codepen
ENCODING 59158
SWIDTH 625 0
DWIDTH 10 0
BBX 10 16 0 -4
BITMAP
0000
0800
1C00
2A00
4900
D580
A280
D580
4900
2A00
1C00
0800
0000
0000
0000
0000
ENDCHAR
STARTCHAR github_full
ENCODING 59159
SWIDTH 625 0
DWIDTH 10 0
BBX 10 16 0 -4
BITMAP
0000
1E00
7F80
6D80
E1C0
C0C0
C0C0
E1C0
5380
6380
1200
0000
0000
0000
0000
0000
ENDCHAR
STARTCHAR nodejs_small
ENCODING 59160
SWIDTH 625 0
DWIDTH 10 0
BBX 10 16 0 -4
BITMAP
0000
0C00
3300
C0C0
9740
9440
9740
9140
9740
D0C0
2300
0C00
0000
0000
0000
0000
ENDCHAR
STARTCHAR nodejs
ENCODING 59161
SWIDTH 625 0
DWIDTH 10 0
BBX 10 16 0 -4
BITMAP
0000
0C00
3300
C0C0
9740
9440
9740
9140
9740
D0C0
2300
0C00
0000
0000
0000
0000
ENDCHAR
STARTCHAR hackernews
ENCODING 59162
SWIDTH 625 0
DWIDTH 10 0
BBX 10 16 0 -4
BITMAP
0000
0000
FF80
8080
B680
9480
8880
8880
8880
8080
FF80
0000
0000
0000
0000
0000
ENDCHAR
STARTCHAR ember
ENCODING 59163
SWIDTH 625 0
DWIDTH 10 0
BBX 10 16 0 -4
BITMAP
0080
61C0
FFC0
0000
A540
4C40
FFC0
C0C0
E1C0
63C0
3F80
1F00
0000
0000
0000
0000
ENDCHAR
STARTCHAR dojo
ENCODING 59164
SWIDTH 625 0
DWIDTH 10 0
BBX 10 16 0 -4
BITMAP
0000
0000
0000
0000
2200
2000
EA80
B740
EA80
0200
0400
0000
0000
0000
0000
0000
ENDCHAR
STARTCHAR django
ENCODING 59165
SWIDTH 625 0
DWIDTH 10 0
BBX 10 16 0 -4
BITMAP
0000
0000
FF80
F580
F780
C580
D580
C580
FD80
FB80
FF80
0000
0000
0000
0000
0000
ENDCHAR
STARTCHAR npm
ENCODING 59166
SWIDTH 625 0
DWIDTH 10 0
BBX 10 16 0 -4
BITMAP
0000
FFC0
FFC0
C0C0
C6C0
C6C0
C6C0
C6C0
C6C0
FFC0
FFC0
0000
0000
0000
0000
0000
ENDCHAR
STARTCHAR ghost
ENCODING 59167
SWIDTH 625 0
DWIDTH 10 0
BBX 10 16 0 -4
BITMAP
0000
FCC0
FCC0
0000
0000
FFC0
FFC0
0000
0000
F3C0
F3C0
0000
0000
0000
0000
0000
ENDCHAR
STARTCHAR modernizr
ENCODING 59168
SWIDTH 625 0
DWIDTH 10 0
BBX 10 16 0 -4
BITMAP
0000
0000
0000
0000
3700
3780
F7C0
F7C0
0000
0000
0000
0000
0000
0000
0000
0000
ENDCHAR
STARTCHAR unity
ENCODING 59169
SWIDTH 625 0
DWIDTH 10 0
BBX 10 16 0 -4
BITMAP
0000
0000
1FC0
21C0
62C0
FC40
6240
21C0
1380
0F80
0000
0000
0000
0000
0000
0000
ENDCHAR
STARTCHAR raspberry_pi
ENCODING 59170
SWIDTH 625 0
DWIDTH 10 0
BBX 10 16 0 -4
BITMAP
F3C0
8C40
5E80
3300
4C80
4C80
B340
B340
4C80
4C80
3300
0C00
0000
0000
0000
0000
ENDCHAR
STARTCHAR blackberry
ENCODING 59171
SWIDTH 625 0
DWIDTH 10 0
BBX 10 16 0 -4
BITMAP
0000
6C00
6C00
4980
0180
D900
D800
9300
0300
3200
3000
2000
0000
0000
0000
0000
ENDCHAR
STARTCHAR go
ENCODING 59172
SWIDTH 625 0
DWIDTH 10 0
BBX 10 16 0 -4
BITMAP
DEC0
FFC0
4C80
5D80
4C80
7F80
7380
7380
7F80
7F80
7F80
7F80
0000
0000
0000
0000
ENDCHAR
STARTCHAR git_branch
ENCODING 59173
SWIDTH 625 0
DWIDTH 10 0
BBX 10 16 0 -4
BITMAP
6000
9000
9300
6480
6480
6300
6F00
7E00
7800
9000
9000
6000
0000
0000
0000
0000
ENDCHAR
STARTCHAR git_pull_request
ENCODING 59174
SWIDTH 625 0
DWIDTH 10 0
BBX 10 16 0 -4
BITMAP
6800
9E00
9F00
6B00
6300
6300
6300
6300
6300
9480
9480
6300
0000
0000
0000
0000
ENDCHAR
STARTCHAR git_merge
ENCODING 59175
SWIDTH 625 0
DWIDTH 10 0
BBX 10 16 0 -4
BITMAP
6000
9000
9000
6000
6000
7300
7C80
6C80
6300
9000
9000
6000
0000
0000
0000
0000
ENDCHAR
STARTCHAR git_compare
ENCODING 59176
SWIDTH 625 0
DWIDTH 10 0
BBX 10 16 0 -4
BITMAP
6800
9E00
9F00
6B00
6300
6300
6300
6300
6B00
7C80
3C80
0B00
0000
0000
0000
0000
ENDCHAR
STARTCHAR git_commit
ENCODING 59177
SWIDTH 625 0
DWIDTH 10 0
BBX 10 16 0 -4
BITMAP
0000
0000
0000
0C00
1E00
F3C0
F3C0
1E00
0C00
0000
0000
0000
0000
0000
0000
0000
ENDCHAR
STARTCHAR cssdeck
ENCODING 59178
SWIDTH 625 0
DWIDTH 10 0
BBX 10 16 0 -4
BITMAP
0000
0000
1800
6000
5E00
BF00
BF00
BF40
BF40
5E80
6180
1E00
0000
0000
0000
0000
ENDCHAR
STARTCHAR yahoo_small
ENCODING 59179
SWIDTH 625 0
DWIDTH 10 0
BBX 10 16 0 -4
BITMAP
0000
0000
F000
6780
6300
3680
3C80
1880
1800
3C80
0000
0000
0000
0000
0000
0000
ENDCHAR
STARTCHAR techcrunch
ENCODING 59180
SWIDTH 625 0
DWIDTH 10 0
BBX 10 16 0 -4
BITMAP
0000
0000
0000
FCC0
FCC0
3300
3300
33C0
33C0
0000
0000
0000
0000
0000
0000
0000
ENDCHAR
STARTCHAR smashing_magazine
ENCODING 59181
SWIDTH 625 0
DWIDTH 10 0
BBX 10 16 0 -4
BITMAP
0000
0380
C180
CF80
C780
E3C0
F8C0
FC40
6E40
60C0
6000
0000
0000
0000
0000
0000
ENDCHAR
STARTCHAR net_magazine
ENCODING 59182
SWIDTH 625 0
DWIDTH 10 0
BBX 10 16 0 -4
BITMAP
0000
0000
0000
0080
C5C0
AA80
AE80
A880
A6C0
0000
0000
0000
0000
0000
0000
0000
ENDCHAR
STARTCHAR codrops
ENCODING 59183
SWIDTH 625 0
DWIDTH 10 0
BBX 10 16 0 -4
BITMAP
0000
1E00
7B80
7B80
EBC0
E9C0
C5C0
E9C0
7180
7B80
1E00
0000
0000
0000
0000
0000
ENDCHAR
STARTCHAR phonegap
ENCODING 59184
SWIDTH 625 0
DWIDTH 10 0
BBX 10 16 0 -4
BITMAP
0FC0
0FC0
3E40
7E40
6A40
6A40
6A40
6A40
7E40
3E40
0FC0
0FC0
0000
0000
0000
0000
ENDCHAR
STARTCHAR google_drive
ENCODING 59185
SWIDTH 625 0
DWIDTH 10 0
BBX 10 16 0 -4
BITMAP
0000
0000
1C00
0E00
3700
7380
6380
E000
DF80
3F00
0000
0000
0000
0000
0000
0000
ENDCHAR
STARTCHAR html5_multimedia
ENCODING 59186
SWIDTH 625 0
DWIDTH 10 0
BBX 10 16 0 -4
BITMAP
0000
0000
6D80
DB00
C0C0
C0C0
C0C0
C0C0
FFC0
FFC0
0000
0000
0000
0000
0000
0000
ENDCHAR
STARTCHAR html5_device_access
ENCODING 59187
SWIDTH 625 0
DWIDTH 10 0
BBX 10 16 0 -4
BITMAP
0000
0000
0000
3600
1C00
FF80
8080
8080
8080
8880
9C80
F780
0000
0000
0000
0000
ENDCHAR
STARTCHAR html5_connectivity
ENCODING 59188
SWIDTH 625 0
DWIDTH 10 0
BBX 10 16 0 -4
BITMAP
0000
0000
F800
7D00
0780
6DC0
7EC0
3AC0
2CC0
7000
3F80
1FC0
0000
0000
0000
0000
ENDCHAR
STARTCHAR html5_3d_effects
ENCODING 59189
SWIDTH 625 0
DWIDTH 10 0
BBX 10 16 0 -4
BITMAP
0000
0E00
6380
F8C0
DEC0
C4C0
C0C0
C0C0
F3C0
7F80
0C00
0000
0000
0000
0000
0000
ENDCHAR
STARTCHAR html_5
ENCODING 59190
SWIDTH 625 0
DWIDTH 10 0
BBX 10 16 0 -4
BITMAP
0000
FF80
FF80
C180
DF80
C180
7D00
5D00
6300
7F00
1C00
0000
0000
0000
0000
0000
ENDCHAR
STARTCHAR scala
ENCODING 59191
SWIDTH 625 0
DWIDTH 10 0
BBX 10 16 0 -4
BITMAP
0180
0780
7F00
7C00
0180
0780
7F00
7C00
0180
0780
7F00
7C00
0000
0000
0000
0000
ENDCHAR
STARTCHAR java
ENCODING 59192
SWIDTH 625 0
DWIDTH 10 0
BBX 10 16 0 -4
BITMAP
0400
0900
1200
2100
9200
7F80
0000
3F00
0000
5E00
6180
1E00
0000
0000
0000
0000
ENDCHAR
STARTCHAR ruby
ENCODING 59193
SWIDTH 625 0
DWIDTH 10 0
BBX 10 16 0 -4
BITMAP
0000
0000
0380
0D40
1C40
3D40
7B40
76C0
8CC0
DB40
8740
7F80
0000
0000
0000
0000
ENDCHAR
STARTCHAR ubuntu
ENCODING 59194
SWIDTH 625 0
DWIDTH 10 0
BBX 10 16 0 -4
BITMAP
0000
0000
3E00
7B00
F380
DD80
9F80
DD80
F380
7B00
3E00
0000
0000
0000
0000
0000
ENDCHAR
STARTCHAR ruby_on_rails
ENCODING 59195
SWIDTH 625 0
DWIDTH 10 0
BBX 10 16 0 -4
BITMAP
0000
0280
0B80
07C0
1E40
0C00
1E00
7C00
1E00
3C00
FE00
3C00
0000
0000
0000
0000
ENDCHAR
STARTCHAR python
ENCODING 59196
SWIDTH 625 0
DWIDTH 10 0
BBX 10 16 0 -4
BITMAP
0000
0C00
1600
1E00
7E80
FEC0
E1C0
DFC0
5F80
1E00
1A00
0C00
0000
0000
0000
0000
ENDCHAR
STARTCHAR php
ENCODING 59197
SWIDTH 625 0
DWIDTH 10 0
BBX 10 16 0 -4
BITMAP
0000
0000
1000
1000
DB00
B680
B680
D700
8200
8200
0000
0000
0000
0000
0000
0000
ENDCHAR
STARTCHAR markdown
ENCODING 59198
SWIDTH 625 0
DWIDTH 10 0
BBX 10 16 0 -4
BITMAP
0000
0000
0000
FFC0
B6C0
86C0
86C0
B440
B6C0
FFC0
0000
0000
0000
0000
0000
0000
ENDCHAR
STARTCHAR laravel
ENCODING 59199
SWIDTH 625 0
DWIDTH 10 0
BBX 10 16 0 -4
BITMAP
0000
0000
E000
A000
A180
9140
5780
5900
6880
0B80
0400
0000
0000
0000
0000
0000
ENDCHAR
STARTCHAR magento
ENCODING 59200
SWIDTH 625 0
DWIDTH 10 0
BBX 10 16 0 -4
BITMAP
0000
0000
1C00
7700
4100
5500
5500
5500
5500
1C00
0800
0000
0000
0000
0000
0000
ENDCHAR
STARTCHAR joomla
ENCODING 59201
SWIDTH 625 0
DWIDTH 10 0
BBX 10 16 0 -4
BITMAP
0000
0000
C180
F780
4900
5500
2200
5500
4900
F780
C180
0000
0000
0000
0000
0000
ENDCHAR
STARTCHAR drupal
ENCODING 59202
SWIDTH 625 0
DWIDTH 10 0
BBX 10 16 0 -4
BITMAP
0000
1000
1800
3E00
7F00
FF80
FF80
CE80
C080
CC80
7300
3E00
0000
0000
0000
0000
ENDCHAR
STARTCHAR chrome
ENCODING 59203
SWIDTH 625 0
DWIDTH 10 0
BBX 10 16 0 -4
BITMAP
0000
1E00
3F80
5F80
D000
EDC0
EDC0
F3C0
7B80
7780
1600
0000
0000
0000
0000
0000
ENDCHAR
STARTCHAR ie
ENCODING 59204
SWIDTH 625 0
DWIDTH 10 0
BBX 10 16 0 -4
BITMAP
0000
0000
0000
0380
1E80
3300
7F00
A000
7300
1E00
0000
0000
0000
0000
0000
0000
ENDCHAR
STARTCHAR firefox
ENCODING 59205
SWIDTH 625 0
DWIDTH 10 0
BBX 10 16 0 -4
BITMAP
0000
1F00
B180
F0C0
F8C0
E1C0
F9C0
F1C0
7F80
7F80
1E00
0000
0000
0000
0000
0000
ENDCHAR
STARTCHAR opera
ENCODING 59206
SWIDTH 625 0
DWIDTH 10 0
BBX 10 16 0 -4
BITMAP
0000
1E00
7380
6180
E1C0
E1C0
E1C0
E1C0
6180
7380
1E00
0000
0000
0000
0000
0000
ENDCHAR
STARTCHAR bootstrap
ENCODING 59207
SWIDTH 625 0
DWIDTH 10 0
BBX 10 16 0 -4
BITMAP
0000
0000
7F00
FF80
C380
DD80
C380
DD80
C380
FF80
7F00
0000
0000
0000
0000
0000
ENDCHAR
STARTCHAR safari
ENCODING 59208
SWIDTH 625 0
DWIDTH 10 0
BBX 10 16 0 -4
BITMAP
0800
1400
1E00
6180
5E80
B540
B340
B340
AB40
5E80
6180
1E00
0000
0000
0000
0000
ENDCHAR
STARTCHAR css3
ENCODING 59209
SWIDTH 625 0
DWIDTH 10 0
BBX 10 16 0 -4
BITMAP
0000
FF80
FF80
C180
FD80
E180
7D00
5D00
6300
7F00
1C00
0000
0000
0000
0000
0000
ENDCHAR
STARTCHAR css3_full
ENCODING 59210
SWIDTH 625 0
DWIDTH 10 0
BBX 10 16 0 -4
BITMAP
0000
3FC0
3FC0
00C0
7FC0
7FC0
0180
4180
E380
FF80
3E00
0800
0000
0000
0000
0000
ENDCHAR
STARTCHAR sass
ENCODING 59211
SWIDTH 625 0
DWIDTH 10 0
BBX 10 16 0 -4
BITMAP
0000
1E00
7180
6E80
DDC0
EFC0
E3C0
D5C0
4780
7F80
1E00
0000
0000
0000
0000
0000
ENDCHAR
STARTCHAR grunt
ENCODING 59212
SWIDTH 625 0
DWIDTH 10 0
BBX 10 16 0 -4
BITMAP
4080
EDC0
7F80
FFC0
5E80
EDC0
7F80
7F80
BF40
9E40
7F80
3F00
0000
0000
0000
0000
ENDCHAR
STARTCHAR bower
ENCODING 59213
SWIDTH 625 0
DWIDTH 10 0
BBX 10 16 0 -4
BITMAP
1E00
2100
49C0
42C0
8240
8380
85C0
8040
C0C0
6380
3E00
1E00
0000
0000
0000
0000
ENDCHAR
STARTCHAR javascript
ENCODING 59214
SWIDTH 625 0
DWIDTH 10 0
BBX 10 16 0 -4
BITMAP
0000
0000
3380
3780
3600
3700
3380
3180
F780
E700
0000
0000
0000
0000
0000
0000
ENDCHAR
STARTCHAR javascript_shield
ENCODING 59215
SWIDTH 625 0
DWIDTH 10 0
BBX 10 16 0 -4
BITMAP
0000
FF80
E180
DD80
DF80
C180
7D00
5D00
6300
7F00
1C00
0000
0000
0000
0000
0000
ENDCHAR
STARTCHAR jquery
ENCODING 59216
SWIDTH 625 0
DWIDTH 10 0
BBX 10 16 0 -4
BITMAP
0000
4A00
9200
9200
91C0
9800
CC40
4780
6000
3840
0F80
0000
0000
0000
0000
0000
ENDCHAR
STARTCHAR coffeescript
ENCODING 59217
SWIDTH 625 0
DWIDTH 10 0
BBX 10 16 0 -4
BITMAP
0000
0600
3900
8240
7F80
8040
7F80
FF80
BF00
BF00
5E00
0000
0000
0000
0000
0000
ENDCHAR
STARTCHAR backbone
ENCODING 59218
SWIDTH 625 0
DWIDTH 10 0
BBX 10 16 0 -4
BITMAP
0000
C0C0
F3C0
FFC0
DEC0
F3C0
E1C0
F3C0
DEC0
FFC0
F3C0
C0C0
0000
0000
0000
0000
ENDCHAR
STARTCHAR angular
ENCODING 59219
SWIDTH 625 0
DWIDTH 10 0
BBX 10 16 0 -4
BITMAP
0000
0800
3E00
F780
EB80
EB80
EB80
C180
5D00
7F00
3E00
0800
0000
0000
0000
0000
ENDCHAR
STARTCHAR jquery_ui
ENCODING 59220
SWIDTH 625 0
DWIDTH 10 0
BBX 10 16 0 -4
BITMAP
0000
0000
0000
7F80
FFC0
FEC0
DFC0
DEC0
DEC0
E1C0
7F80
3F00
0000
0000
0000
0000
ENDCHAR
STARTCHAR swift
ENCODING 59221
SWIDTH 625 0
DWIDTH 10 0
BBX 10 16 0 -4
BITMAP
0000
0000
A180
58C0
3CC0
1FC0
0FC0
8780
FFC0
7FC0
1E40
0000
0000
0000
0000
0000
ENDCHAR
STARTCHAR symfony
ENCODING 59222
SWIDTH 625 0
DWIDTH 10 0
BBX 10 16 0 -4
BITMAP
0000
0200
0700
0500
7E00
C400
6400
BC00
6800
0800
3800
3000
0000
0000
0000
0000
ENDCHAR
STARTCHAR symfony_badge
ENCODING 59223
SWIDTH 625 0
DWIDTH 10 0
BBX 10 16 0 -4
BITMAP
0000
3D00
7A80
FBC0
C0C0
BBC0
CBC0
F3C0
8BC0
7B80
3700
0000
0000
0000
0000
0000
ENDCHAR
STARTCHAR less
ENCODING 59224
SWIDTH 625 0
DWIDTH 10 0
BBX 10 16 0 -4
BITMAP
0000
0000
0000
0000
0000
8000
8000
8000
9280
BD00
A280
5D00
0000
0000
0000
0000
ENDCHAR
STARTCHAR stylus
ENCODING 59225
SWIDTH 625 0
DWIDTH 10 0
BBX 10 16 0 -4
BITMAP
0200
0500
2400
2400
7440
AF80
7F40
AF80
0800
0800
2800
1000
0000
0000
0000
0000
ENDCHAR
STARTCHAR trello
ENCODING 59226
SWIDTH 625 0
DWIDTH 10 0
BBX 10 16 0 -4
BITMAP
0000
0000
FF80
FF80
C980
C980
C980
CF80
CF80
FF80
FF80
0000
0000
0000
0000
0000
ENDCHAR
STARTCHAR atlassian
ENCODING 59227
SWIDTH 625 0
DWIDTH 10 0
BBX 10 16 0 -4
BITMAP
8040
7F80
0000
DEC0
EDC0
7380
3F00
0E00
1700
3B00
7380
7380
0000
0000
0000
0000
ENDCHAR
STARTCHAR cisco
ENCODING 59237
SWIDTH 625 0
DWIDTH 10 0
BBX 10 16 0 -4
BITMAP
0000
0000
0000
0000
0000
0000
2200
2200
AA80
AA80
2200
0000
0000
0000
0000
0000
ENDCHAR
STARTCHAR mit
ENCODING 59275
SWIDTH 625 0
DWIDTH 10 0
BBX 10 16 0 -4
BITMAP
0000
0000
0000
0000
AB80
E100
E900
A900
A900
0000
0000
0000
0000
0000
0000
0000
ENDCHAR
STARTCHAR foxlang
ENCODING 59377
SWIDTH 625 0
DWIDTH 10 0
BBX 10 16 0 -4
BITMAP
0000
0000
0000
0000
0180
0FC0
6040
F180
7AC0
26C0
1D00
0000
0000
0000
0000
0000
ENDCHAR
ENDFONT
